<?xml version="1.0" encoding="UTF-8"?>
<svg id="Layer_1" xmlns="http://www.w3.org/2000/svg" version="1.1" viewBox="0 0 48 48">
  <!-- Generator: Adobe Illustrator 29.5.1, SVG Export Plug-In . SVG Version: 2.1.0 Build 141)  -->
  <defs>
    <style>
      .st0 {
        fill: #5a855b;
      }
    </style>
  </defs>
  <rect x="0" width="48" height="48" rx="4.54" ry="4.54"/>
  <path class="st0" d="M43.19,42.07l-.03-.05L24.85,5.24v-.02c-.13-.35-.46-.59-.85-.59s-.71.24-.84.58h0L4.83,42.03l-.04.08c-.05.11-.08.23-.08.36,0,.5.4.9.9.9h18.96v-22.7s.03,18.71,11.27,22.49c.31.1.79.21,1.12.21h5.41c.5,0,.9-.4.9-.9,0-.14-.04-.28-.1-.4Z"/>
</svg>