<?xml version="1.0" encoding="UTF-8"?>
<svg id="Layer_1" xmlns="http://www.w3.org/2000/svg" version="1.1" viewBox="0 0 979.7 185.5">
  <!-- Generator: Adobe Illustrator 29.8.1, SVG Export Plug-In . SVG Version: 2.1.1 Build 2)  -->
  <defs>
    <style>
      .st0 {
        fill: #5a845b;
      }

      .st1 {
        fill: #2e2e2e;
        stroke: #fff;
        stroke-miterlimit: 10;
      }
    </style>
  </defs>
  <g>
    <path class="st1" d="M291.4,148.9v34.2h-20.5c-14.6,0-26-3.6-34.2-10.7s-12.3-18.8-12.3-35v-52.4h-16.1v-33.5h16.1V19.4h40.3v32.1h26.4v33.5h-26.4v52.9c0,3.9.9,6.8,2.8,8.5,1.9,1.7,5,2.6,9.4,2.6h14.4Z"/>
    <path class="st1" d="M434.7,127h-91.3c.6,8.2,3.3,14.4,7.9,18.8,4.6,4.3,10.3,6.5,17.1,6.5,10.1,0,17.1-4.2,21-12.7h43c-2.2,8.6-6.2,16.4-11.9,23.4-5.7,6.9-12.9,12.4-21.6,16.3s-18.3,5.9-29,5.9-24.4-2.8-34.5-8.3c-10.1-5.5-17.9-13.4-23.6-23.6-5.7-10.2-8.5-22.2-8.5-35.9s2.8-25.6,8.4-35.9c5.6-10.2,13.4-18.1,23.5-23.6s21.6-8.3,34.7-8.3,24.1,2.7,34,8c9.9,5.3,17.7,13,23.2,22.9s8.4,21.5,8.4,34.7-.2,7.7-.7,11.8h0ZM394.1,104.5c0-6.9-2.4-12.4-7.1-16.5s-10.6-6.1-17.7-6.1-12.5,2-17.1,5.9-7.5,9.5-8.6,16.8h50.5Z"/>
    <path class="st1" d="M572.5,65c9.2,10,13.8,23.7,13.8,41.2v76.9h-40.1v-71.5c0-8.8-2.3-15.7-6.8-20.5-4.6-4.9-10.7-7.3-18.4-7.3s-13.8,2.4-18.4,7.3c-4.6,4.9-6.8,11.7-6.8,20.5v71.5h-40.4V51.4h40.4v17.5c4.1-5.8,9.6-10.4,16.5-13.8,6.9-3.4,14.7-5.1,23.4-5.1,15.4,0,27.7,5,36.9,15Z"/>
    <path class="st1" d="M683.7,148.9v34.2h-20.5c-14.6,0-26-3.6-34.2-10.7-8.2-7.2-12.3-18.8-12.3-35v-52.4h-16v-33.5h16V19.4h40.3v32.1h26.4v33.5h-26.4v52.9c0,3.9.9,6.8,2.8,8.5,1.9,1.7,5,2.6,9.4,2.6h14.4Z"/>
    <path class="st1" d="M827,127h-91.3c.6,8.2,3.3,14.4,7.9,18.8,4.6,4.3,10.3,6.5,17.1,6.5,10.1,0,17.1-4.2,21-12.7h43c-2.2,8.6-6.2,16.4-11.9,23.4s-12.9,12.4-21.6,16.3-18.3,5.9-29,5.9-24.4-2.8-34.5-8.3c-10.1-5.5-17.9-13.4-23.6-23.6-5.7-10.2-8.5-22.2-8.5-35.9s2.8-25.6,8.4-35.9c5.6-10.2,13.4-18.1,23.5-23.6s21.6-8.3,34.7-8.3,24.1,2.7,34,8c9.9,5.3,17.7,13,23.2,22.9s8.4,21.5,8.4,34.7-.2,7.7-.7,11.8h0,0ZM786.4,104.5c0-6.9-2.4-12.4-7.1-16.5-4.7-4.1-10.6-6.1-17.7-6.1s-12.5,2-17.1,5.9-7.5,9.5-8.6,16.8h50.5Z"/>
    <path class="st1" d="M847.9,81.4c5.1-10.2,12.1-18.1,20.9-23.6s18.6-8.3,29.5-8.3,16.6,1.8,23.7,5.4,12.8,8.5,16.9,14.6V8.5h40.3v174.6h-40.3v-18.9c-3.8,6.3-9.2,11.3-16.2,15.1-7,3.8-15.1,5.7-24.4,5.7s-20.7-2.8-29.5-8.4c-8.8-5.6-15.8-13.5-20.9-23.8s-7.7-22.2-7.7-35.8,2.6-25.4,7.7-35.6h0ZM930.5,93.4c-5.6-5.8-12.4-8.7-20.4-8.7s-14.8,2.9-20.4,8.6c-5.6,5.7-8.4,13.7-8.4,23.7s2.8,18,8.4,24c5.6,5.9,12.4,8.9,20.4,8.9s14.8-2.9,20.4-8.7c5.6-5.8,8.4-13.8,8.4-23.8s-2.8-18-8.4-23.8h0Z"/>
  </g>
  <path class="st0" d="M181.4,176.6v-.2c-.1,0-86.5-173.5-86.5-173.5h0c-.6-1.7-2.2-2.9-4-2.9s-3.3,1.1-4,2.7h0L.5,176.4l-.2.4c-.2.5-.4,1.1-.4,1.7,0,2.4,1.9,4.2,4.2,4.2h89.4v-107.1s.2,88.3,53.1,106.1c3.7,1.1,7.7,1,9.8,1h21c2.4,0,4.2-1.9,4.2-4.2s-.2-1.3-.4-1.9h0Z"/>
</svg>