<?xml version="1.0" encoding="UTF-8"?>
<svg id="Layer_1" data-name="Layer 1" xmlns="http://www.w3.org/2000/svg" viewBox="0 0 979.72 185.51">
  <defs>
    <style>
      .cls-1 {
        fill: #5a845b;
      }

      .cls-2 {
        fill: #fff;
        stroke: #fff;
        stroke-miterlimit: 10;
      }
    </style>
  </defs>
  <g>
    <path class="cls-2" d="M291.41,148.9v34.22h-20.53c-14.63,0-26.04-3.58-34.22-10.74s-12.27-18.84-12.27-35.04v-52.39h-16.05v-33.51h16.05V19.35h40.35v32.09h26.43v33.51h-26.43v52.86c0,3.93.94,6.77,2.83,8.49,1.89,1.73,5.03,2.6,9.44,2.6h14.4Z"/>
    <path class="cls-2" d="M434.71,126.96h-91.32c.63,8.18,3.26,14.43,7.91,18.76,4.64,4.33,10.34,6.49,17.11,6.49,10.07,0,17.07-4.25,21-12.74h42.95c-2.21,8.65-6.18,16.44-11.92,23.36-5.74,6.92-12.94,12.35-21.59,16.28s-18.33,5.9-29.02,5.9c-12.9,0-24.39-2.75-34.45-8.26-10.07-5.51-17.93-13.37-23.6-23.6-5.66-10.22-8.5-22.18-8.5-35.87s2.79-25.64,8.38-35.87c5.58-10.22,13.41-18.09,23.48-23.6s21.63-8.26,34.69-8.26,24.07,2.68,33.98,8.02c9.91,5.35,17.66,12.98,23.24,22.89s8.38,21.47,8.38,34.69c0,3.78-.24,7.71-.71,11.8h-.01ZM394.13,104.54c0-6.92-2.36-12.43-7.08-16.52s-10.62-6.14-17.7-6.14-12.47,1.97-17.11,5.9c-4.64,3.93-7.51,9.52-8.61,16.75h50.5,0Z"/>
    <path class="cls-2" d="M572.45,65.01c9.2,9.99,13.8,23.72,13.8,41.18v76.93h-40.11v-71.5c0-8.81-2.28-15.65-6.84-20.53-4.56-4.87-10.7-7.31-18.41-7.31s-13.84,2.44-18.41,7.31c-4.56,4.88-6.84,11.72-6.84,20.53v71.5h-40.35V51.44h40.35v17.46c4.09-5.82,9.59-10.42,16.52-13.8,6.92-3.38,14.71-5.07,23.36-5.07,15.41,0,27.73,5,36.93,14.98Z"/>
    <path class="cls-2" d="M683.69,148.9v34.22h-20.53c-14.63,0-26.04-3.58-34.22-10.74-8.18-7.16-12.27-18.84-12.27-35.04v-52.39h-16.05v-33.51h16.05V19.35h40.35v32.09h26.43v33.51h-26.43v52.86c0,3.93.94,6.77,2.83,8.49,1.89,1.73,5.03,2.6,9.44,2.6h14.4Z"/>
    <path class="cls-2" d="M826.99,126.96h-91.32c.63,8.18,3.26,14.43,7.91,18.76,4.64,4.33,10.34,6.49,17.11,6.49,10.07,0,17.07-4.25,21-12.74h42.95c-2.21,8.65-6.17,16.44-11.92,23.36s-12.94,12.35-21.59,16.28-18.33,5.9-29.02,5.9c-12.9,0-24.39-2.75-34.45-8.26-10.07-5.51-17.94-13.37-23.6-23.6-5.66-10.22-8.49-22.18-8.49-35.87s2.79-25.64,8.38-35.87c5.58-10.22,13.41-18.09,23.48-23.6s21.63-8.26,34.69-8.26,24.07,2.68,33.98,8.02c9.91,5.35,17.66,12.98,23.24,22.89s8.38,21.47,8.38,34.69c0,3.78-.24,7.71-.71,11.8h-.02ZM786.4,104.54c0-6.92-2.36-12.43-7.08-16.52-4.72-4.09-10.62-6.14-17.7-6.14s-12.47,1.97-17.11,5.9-7.51,9.52-8.61,16.75h50.5Z"/>
    <path class="cls-2" d="M847.9,81.41c5.11-10.22,12.07-18.09,20.88-23.6s18.64-8.26,29.5-8.26c8.65,0,16.56,1.81,23.72,5.43s12.78,8.49,16.87,14.63V8.5h40.35v174.62h-40.35v-18.88c-3.78,6.29-9.17,11.33-16.16,15.1-7,3.78-15.14,5.66-24.42,5.66-10.85,0-20.69-2.79-29.5-8.38-8.81-5.58-15.77-13.53-20.88-23.83s-7.67-22.22-7.67-35.75,2.56-25.4,7.67-35.63h-.01ZM930.49,93.45c-5.58-5.82-12.39-8.73-20.41-8.73s-14.83,2.87-20.41,8.61c-5.59,5.74-8.38,13.65-8.38,23.71s2.79,18.05,8.38,23.95c5.58,5.9,12.39,8.85,20.41,8.85s14.83-2.91,20.41-8.73c5.58-5.82,8.38-13.76,8.38-23.83s-2.79-18.01-8.38-23.83Z"/>
  </g>
  <path class="cls-1" d="M181.45,176.62l-.12-.22L94.97,2.87l-.04-.07c-.59-1.63-2.15-2.8-3.98-2.8s-3.35,1.14-3.96,2.74h0L.54,176.41l-.17.36c-.23.53-.37,1.1-.37,1.72,0,2.35,1.9,4.25,4.25,4.25h89.44l.04-107.09s.12,88.27,53.11,106.09c3.74,1.08,7.72,1,9.76,1h21.04c2.35,0,4.25-1.9,4.25-4.25,0-.67-.17-1.3-.45-1.87h0Z"/>
</svg>